<svg xmlns="http://www.w3.org/2000/svg" xmlns:xlink="http://www.w3.org/1999/xlink" fill="none" version="1.1" width="48" height="48" viewBox="0 0 48 48"><defs><clipPath id="master_svg0_0_251"><rect x="0" y="0" width="48" height="48" rx="0"/></clipPath></defs><g clip-path="url(#master_svg0_0_251)"><g><path d="M14,34C14,34,14,32,14,32C13.46957,32,12.96086,32.2107,12.58579,32.5858C12.58579,32.5858,14,34,14,34C14,34,14,34,14,34ZM6,42C6,42,4,42,4,42C4,42.8089,4.48728,43.5382,5.23463,43.8478C5.98198,44.1573,6.84222,43.9862,7.414210000000001,43.4142C7.414210000000001,43.4142,6,42,6,42C6,42,6,42,6,42ZM10,6C10,6,10,4,10,4C10,4,10,6,10,6C10,6,10,6,10,6ZM38,6C38,6,38,4,38,4C38,4,38,6,38,6C38,6,38,6,38,6ZM40,30C40,30.5304,39.7893,31.0391,39.4142,31.4142C39.4142,31.4142,42.2426,34.242599999999996,42.2426,34.242599999999996C43.3679,33.1174,44,31.5913,44,30C44,30,40,30,40,30C40,30,40,30,40,30ZM39.4142,31.4142C39.0391,31.7893,38.5304,32,38,32C38,32,38,36,38,36C39.5913,36,41.1174,35.3679,42.2426,34.242599999999996C42.2426,34.242599999999996,39.4142,31.4142,39.4142,31.4142C39.4142,31.4142,39.4142,31.4142,39.4142,31.4142ZM38,32C38,32,14,32,14,32C14,32,14,36,14,36C14,36,38,36,38,36C38,36,38,32,38,32C38,32,38,32,38,32ZM12.58579,32.5858C12.58579,32.5858,4.58579,40.5858,4.58579,40.5858C4.58579,40.5858,7.414210000000001,43.4142,7.414210000000001,43.4142C7.414210000000001,43.4142,15.4142,35.4142,15.4142,35.4142C15.4142,35.4142,12.58579,32.5858,12.58579,32.5858C12.58579,32.5858,12.58579,32.5858,12.58579,32.5858ZM8,42C8,42,8,10,8,10C8,10,4,10,4,10C4,10,4,42,4,42C4,42,8,42,8,42C8,42,8,42,8,42ZM8,10C8,9.469570000000001,8.210709999999999,8.96086,8.58579,8.58579C8.58579,8.58579,5.75736,5.75736,5.75736,5.75736C4.63214,6.88258,4,8.4087,4,10C4,10,8,10,8,10C8,10,8,10,8,10ZM8.58579,8.58579C8.96086,8.210709999999999,9.469570000000001,8,10,8C10,8,10,4,10,4C8.4087,4,6.88258,4.63214,5.75736,5.75736C5.75736,5.75736,8.58579,8.58579,8.58579,8.58579C8.58579,8.58579,8.58579,8.58579,8.58579,8.58579ZM10,8C10,8,38,8,38,8C38,8,38,4,38,4C38,4,10,4,10,4C10,4,10,8,10,8C10,8,10,8,10,8ZM38,8C38.5304,8,39.0391,8.210709999999999,39.4142,8.58579C39.4142,8.58579,42.2426,5.75736,42.2426,5.75736C41.1174,4.63214,39.5913,4,38,4C38,4,38,8,38,8C38,8,38,8,38,8ZM39.4142,8.58579C39.7893,8.96086,40,9.469570000000001,40,10C40,10,44,10,44,10C44,8.4087,43.3679,6.88258,42.2426,5.75736C42.2426,5.75736,39.4142,8.58579,39.4142,8.58579C39.4142,8.58579,39.4142,8.58579,39.4142,8.58579ZM40,10C40,10,40,30,40,30C40,30,44,30,44,30C44,30,44,10,44,10C44,10,40,10,40,10C40,10,40,10,40,10Z" fill="#1E1E1E" fill-opacity="1"/></g></g></svg>