<svg xmlns="http://www.w3.org/2000/svg" xmlns:xlink="http://www.w3.org/1999/xlink" fill="none" version="1.1" width="48" height="48" viewBox="0 0 48 48"><defs><clipPath id="master_svg0_0_237"><rect x="0" y="0" width="48" height="48" rx="0"/></clipPath></defs><g clip-path="url(#master_svg0_0_237)"><g><path d="M30.58580238418579,34.58580286102295C29.80470238418579,35.36680286102295,29.80470238418579,36.63320286102295,30.58580238418579,37.41420286102295C31.366802384185792,38.19530286102295,32.63320238418579,38.19530286102295,33.41420238418579,37.41420286102295C33.41420238418579,37.41420286102295,30.58580238418579,34.58580286102295,30.58580238418579,34.58580286102295C30.58580238418579,34.58580286102295,30.58580238418579,34.58580286102295,30.58580238418579,34.58580286102295ZM44.00000238418579,24.00000286102295C44.00000238418579,24.00000286102295,45.41420238418579,25.41420286102295,45.41420238418579,25.41420286102295C46.195302384185794,24.63320286102295,46.195302384185794,23.366802861022947,45.41420238418579,22.585802861022948C45.41420238418579,22.585802861022948,44.00000238418579,24.00000286102295,44.00000238418579,24.00000286102295C44.00000238418579,24.00000286102295,44.00000238418579,24.00000286102295,44.00000238418579,24.00000286102295ZM33.41420238418579,10.585789861022949C32.63320238418579,9.804739861022949,31.366802384185792,9.804739861022949,30.58580238418579,10.585789861022949C29.80470238418579,11.36683286102295,29.80470238418579,12.63316286102295,30.58580238418579,13.41421286102295C30.58580238418579,13.41421286102295,33.41420238418579,10.585789861022949,33.41420238418579,10.585789861022949C33.41420238418579,10.585789861022949,33.41420238418579,10.585789861022949,33.41420238418579,10.585789861022949ZM17.414202384185792,13.41421286102295C18.19530238418579,12.63316286102295,18.19530238418579,11.36683286102295,17.414202384185792,10.585789861022949C16.633202384185793,9.804739861022949,15.36680238418579,9.804739861022949,14.585802384185792,10.585789861022949C14.585802384185792,10.585789861022949,17.414202384185792,13.41421286102295,17.414202384185792,13.41421286102295C17.414202384185792,13.41421286102295,17.414202384185792,13.41421286102295,17.414202384185792,13.41421286102295ZM4.000002384185791,24.00000286102295C4.000002384185791,24.00000286102295,2.585789384185791,22.585802861022948,2.585789384185791,22.585802861022948C1.804739384185791,23.366802861022947,1.804739384185791,24.63320286102295,2.585789384185791,25.41420286102295C2.585789384185791,25.41420286102295,4.000002384185791,24.00000286102295,4.000002384185791,24.00000286102295C4.000002384185791,24.00000286102295,4.000002384185791,24.00000286102295,4.000002384185791,24.00000286102295ZM14.585802384185792,37.41420286102295C15.36680238418579,38.19530286102295,16.633202384185793,38.19530286102295,17.414202384185792,37.41420286102295C18.19530238418579,36.63320286102295,18.19530238418579,35.36680286102295,17.414202384185792,34.58580286102295C17.414202384185792,34.58580286102295,14.585802384185792,37.41420286102295,14.585802384185792,37.41420286102295C14.585802384185792,37.41420286102295,14.585802384185792,37.41420286102295,14.585802384185792,37.41420286102295ZM33.41420238418579,37.41420286102295C33.41420238418579,37.41420286102295,45.41420238418579,25.41420286102295,45.41420238418579,25.41420286102295C45.41420238418579,25.41420286102295,42.58580238418579,22.585802861022948,42.58580238418579,22.585802861022948C42.58580238418579,22.585802861022948,30.58580238418579,34.58580286102295,30.58580238418579,34.58580286102295C30.58580238418579,34.58580286102295,33.41420238418579,37.41420286102295,33.41420238418579,37.41420286102295C33.41420238418579,37.41420286102295,33.41420238418579,37.41420286102295,33.41420238418579,37.41420286102295ZM45.41420238418579,22.585802861022948C45.41420238418579,22.585802861022948,33.41420238418579,10.585789861022949,33.41420238418579,10.585789861022949C33.41420238418579,10.585789861022949,30.58580238418579,13.41421286102295,30.58580238418579,13.41421286102295C30.58580238418579,13.41421286102295,42.58580238418579,25.41420286102295,42.58580238418579,25.41420286102295C42.58580238418579,25.41420286102295,45.41420238418579,22.585802861022948,45.41420238418579,22.585802861022948C45.41420238418579,22.585802861022948,45.41420238418579,22.585802861022948,45.41420238418579,22.585802861022948ZM14.585802384185792,10.585789861022949C14.585802384185792,10.585789861022949,2.585789384185791,22.585802861022948,2.585789384185791,22.585802861022948C2.585789384185791,22.585802861022948,5.414212384185792,25.41420286102295,5.414212384185792,25.41420286102295C5.414212384185792,25.41420286102295,17.414202384185792,13.41421286102295,17.414202384185792,13.41421286102295C17.414202384185792,13.41421286102295,14.585802384185792,10.585789861022949,14.585802384185792,10.585789861022949C14.585802384185792,10.585789861022949,14.585802384185792,10.585789861022949,14.585802384185792,10.585789861022949ZM2.585789384185791,25.41420286102295C2.585789384185791,25.41420286102295,14.585802384185792,37.41420286102295,14.585802384185792,37.41420286102295C14.585802384185792,37.41420286102295,17.414202384185792,34.58580286102295,17.414202384185792,34.58580286102295C17.414202384185792,34.58580286102295,5.414212384185792,22.585802861022948,5.414212384185792,22.585802861022948C5.414212384185792,22.585802861022948,2.585789384185791,25.41420286102295,2.585789384185791,25.41420286102295C2.585789384185791,25.41420286102295,2.585789384185791,25.41420286102295,2.585789384185791,25.41420286102295Z" fill="#1E1E1E" fill-opacity="1"/></g></g></svg>