<svg xmlns="http://www.w3.org/2000/svg" xmlns:xlink="http://www.w3.org/1999/xlink" fill="none" version="1.1" width="48" height="48" viewBox="0 0 48 48"><defs><clipPath id="master_svg0_0_242"><rect x="0" y="0" width="48" height="48" rx="0"/></clipPath></defs><g clip-path="url(#master_svg0_0_242)"><g><path d="M38,16C38,16,38,14,38,14C38,14,38,16,38,16C38,16,38,16,38,16ZM38,32C38,32,38,34,38,34C38,34,38,32,38,32C38,32,38,32,38,32ZM36,30C34.8954,30,34,30.8954,34,32C34,33.1046,34.8954,34,36,34C36,34,36,30,36,30C36,30,36,30,36,30ZM4,16C4,16,4,14,4,14C2.89543,14,2,14.8954,2,16C2,16,4,16,4,16C4,16,4,16,4,16ZM4,34C4,34,2,34,2,34C2,34,4,34,4,34C4,34,4,34,4,34ZM14,2C14,0.89543,13.1046,0,12,0C10.89543,0,10,0.89543,10,2C10,2,14,2,14,2C14,2,14,2,14,2ZM10,8C10,9.10457,10.89543,10,12,10C13.1046,10,14,9.10457,14,8C14,8,10,8,10,8C10,8,10,8,10,8ZM22,2C22,0.89543,21.1046,0,20,0C18.8954,0,18,0.89543,18,2C18,2,22,2,22,2C22,2,22,2,22,2ZM18,8C18,9.10457,18.8954,10,20,10C21.1046,10,22,9.10457,22,8C22,8,18,8,18,8C18,8,18,8,18,8ZM30,2C30,0.89543,29.1046,0,28,0C26.8954,0,26,0.89543,26,2C26,2,30,2,30,2C30,2,30,2,30,2ZM26,8C26,9.10457,26.8954,10,28,10C29.1046,10,30,9.10457,30,8C30,8,26,8,26,8C26,8,26,8,26,8ZM36,18C36,18,38,18,38,18C38,18,38,14,38,14C38,14,36,14,36,14C36,14,36,18,36,18C36,18,36,18,36,18ZM38,18C39.5913,18,41.1174,18.6321,42.2426,19.7574C42.2426,19.7574,45.0711,16.9289,45.0711,16.9289C43.1957,15.0536,40.6522,14,38,14C38,14,38,18,38,18C38,18,38,18,38,18ZM42.2426,19.7574C43.3679,20.8826,44,22.4087,44,24C44,24,48,24,48,24C48,21.3478,46.9464,18.8043,45.0711,16.9289C45.0711,16.9289,42.2426,19.7574,42.2426,19.7574C42.2426,19.7574,42.2426,19.7574,42.2426,19.7574ZM44,24C44,25.5913,43.3679,27.1174,42.2426,28.2426C42.2426,28.2426,45.0711,31.0711,45.0711,31.0711C46.9464,29.1957,48,26.6522,48,24C48,24,44,24,44,24C44,24,44,24,44,24ZM42.2426,28.2426C41.1174,29.3679,39.5913,30,38,30C38,30,38,34,38,34C40.6522,34,43.1957,32.9464,45.0711,31.0711C45.0711,31.0711,42.2426,28.2426,42.2426,28.2426C42.2426,28.2426,42.2426,28.2426,42.2426,28.2426ZM38,30C38,30,36,30,36,30C36,30,36,34,36,34C36,34,38,34,38,34C38,34,38,30,38,30C38,30,38,30,38,30ZM4,18C4,18,36,18,36,18C36,18,36,14,36,14C36,14,4,14,4,14C4,14,4,18,4,18C4,18,4,18,4,18ZM34,16C34,16,34,34,34,34C34,34,38,34,38,34C38,34,38,16,38,16C38,16,34,16,34,16C34,16,34,16,34,16ZM34,34C34,35.5913,33.3679,37.1174,32.242599999999996,38.2426C32.242599999999996,38.2426,35.0711,41.0711,35.0711,41.0711C36.9464,39.1957,38,36.6522,38,34C38,34,34,34,34,34C34,34,34,34,34,34ZM32.242599999999996,38.2426C31.1174,39.3679,29.5913,40,28,40C28,40,28,44,28,44C30.6522,44,33.1957,42.9464,35.0711,41.0711C35.0711,41.0711,32.242599999999996,38.2426,32.242599999999996,38.2426C32.242599999999996,38.2426,32.242599999999996,38.2426,32.242599999999996,38.2426ZM28,40C28,40,12,40,12,40C12,40,12,44,12,44C12,44,28,44,28,44C28,44,28,40,28,40C28,40,28,40,28,40ZM12,40C10.4087,40,8.88258,39.3679,7.75736,38.2426C7.75736,38.2426,4.928929999999999,41.0711,4.928929999999999,41.0711C6.8043,42.9464,9.34783,44,12,44C12,44,12,40,12,40C12,40,12,40,12,40ZM7.75736,38.2426C6.63214,37.1174,6,35.5913,6,34C6,34,2,34,2,34C2,36.6522,3.0535699999999997,39.1957,4.928929999999999,41.0711C4.928929999999999,41.0711,7.75736,38.2426,7.75736,38.2426C7.75736,38.2426,7.75736,38.2426,7.75736,38.2426ZM6,34C6,34,6,16,6,16C6,16,2,16,2,16C2,16,2,34,2,34C2,34,6,34,6,34C6,34,6,34,6,34ZM10,2C10,2,10,8,10,8C10,8,14,8,14,8C14,8,14,2,14,2C14,2,10,2,10,2C10,2,10,2,10,2ZM18,2C18,2,18,8,18,8C18,8,22,8,22,8C22,8,22,2,22,2C22,2,18,2,18,2C18,2,18,2,18,2ZM26,2C26,2,26,8,26,8C26,8,30,8,30,8C30,8,30,2,30,2C30,2,26,2,26,2C26,2,26,2,26,2Z" fill="#1E1E1E" fill-opacity="1"/></g></g></svg>