<svg xmlns="http://www.w3.org/2000/svg" xmlns:xlink="http://www.w3.org/1999/xlink" fill="none" version="1.1" width="48" height="48" viewBox="0 0 48 48"><defs><clipPath id="master_svg0_0_245"><rect x="0" y="0" width="48" height="48" rx="0"/></clipPath></defs><g clip-path="url(#master_svg0_0_245)"><g><path d="M36,22C34.8954,22,34,22.8954,34,24C34,25.1046,34.8954,26,36,26C36,26,36,22,36,22C36,22,36,22,36,22ZM12,26C13.1046,26,14,25.1046,14,24C14,22.8954,13.1046,22,12,22C12,22,12,26,12,26C12,26,12,26,12,26ZM22,12C22,13.1046,22.8954,14,24,14C25.1046,14,26,13.1046,26,12C26,12,22,12,22,12C22,12,22,12,22,12ZM26,36C26,34.8954,25.1046,34,24,34C22.8954,34,22,34.8954,22,36C22,36,26,36,26,36C26,36,26,36,26,36ZM42,24C42,33.9411,33.9411,42,24,42C24,42,24,46,24,46C36.1503,46,46,36.1503,46,24C46,24,42,24,42,24C42,24,42,24,42,24ZM24,42C14.0589,42,6,33.9411,6,24C6,24,2,24,2,24C2,36.1503,11.84974,46,24,46C24,46,24,42,24,42C24,42,24,42,24,42ZM6,24C6,14.0589,14.0589,6,24,6C24,6,24,2,24,2C11.84974,2,2,11.84974,2,24C2,24,6,24,6,24C6,24,6,24,6,24ZM24,6C33.9411,6,42,14.0589,42,24C42,24,46,24,46,24C46,11.84974,36.1503,2,24,2C24,2,24,6,24,6C24,6,24,6,24,6ZM44,22C44,22,36,22,36,22C36,22,36,26,36,26C36,26,44,26,44,26C44,26,44,22,44,22C44,22,44,22,44,22ZM12,22C12,22,4,22,4,22C4,22,4,26,4,26C4,26,12,26,12,26C12,26,12,22,12,22C12,22,12,22,12,22ZM26,12C26,12,26,4,26,4C26,4,22,4,22,4C22,4,22,12,22,12C22,12,26,12,26,12C26,12,26,12,26,12ZM26,44C26,44,26,36,26,36C26,36,22,36,22,36C22,36,22,44,22,44C22,44,26,44,26,44C26,44,26,44,26,44Z" fill="#1E1E1E" fill-opacity="1"/></g></g></svg>