<svg xmlns="http://www.w3.org/2000/svg" xmlns:xlink="http://www.w3.org/1999/xlink" fill="none" version="1.1" width="48" height="48" viewBox="0 0 48 48"><defs><clipPath id="master_svg0_0_248"><rect x="0" y="0" width="48" height="48" rx="0"/></clipPath></defs><g clip-path="url(#master_svg0_0_248)"><g><path d="M22,9.999999266281128C23.1046,9.999999266281128,24,9.104569266281128,24,7.999999266281128C24,6.895429266281128,23.1046,5.999999266281128,22,5.999999266281128C22,5.999999266281128,22,9.999999266281128,22,9.999999266281128C22,9.999999266281128,22,9.999999266281128,22,9.999999266281128ZM8,7.999999266281128C8,7.999999266281128,8,5.999999266281128,8,5.999999266281128C8,5.999999266281128,8,7.999999266281128,8,7.999999266281128C8,7.999999266281128,8,7.999999266281128,8,7.999999266281128ZM4,11.999959266281127C4,11.999959266281127,2,11.999959266281127,2,11.999959266281127C2,11.999959266281127,4,11.999959266281127,4,11.999959266281127C4,11.999959266281127,4,11.999959266281127,4,11.999959266281127ZM4,39.99995926628113C4,39.99995926628113,2,39.99995926628113,2,39.99995926628113C2,39.99995926628113,4,39.99995926628113,4,39.99995926628113C4,39.99995926628113,4,39.99995926628113,4,39.99995926628113ZM42,25.999959266281127C42,24.89545926628113,41.1046,23.999959266281127,40,23.999959266281127C38.8954,23.999959266281127,38,24.89545926628113,38,25.999959266281127C38,25.999959266281127,42,25.999959266281127,42,25.999959266281127C42,25.999959266281127,42,25.999959266281127,42,25.999959266281127ZM37,4.999999266281128C37,4.999999266281128,35.5858,3.585789266281128,35.5858,3.585789266281128C35.5858,3.585789266281128,37,4.999999266281128,37,4.999999266281128C37,4.999999266281128,37,4.999999266281128,37,4.999999266281128ZM40,3.757359266281128C40,3.757359266281128,40,1.757359266281128,40,1.757359266281128C40,1.757359266281128,40,3.757359266281128,40,3.757359266281128C40,3.757359266281128,40,3.757359266281128,40,3.757359266281128ZM43,10.999999266281128C43,10.999999266281128,41.5858,9.585789266281129,41.5858,9.585789266281129C41.5858,9.585789266281129,41.5858,9.585789266281129,41.5858,9.585789266281129C41.5858,9.585789266281129,43,10.999999266281128,43,10.999999266281128C43,10.999999266281128,43,10.999999266281128,43,10.999999266281128ZM24,29.999959266281127C24,29.999959266281127,24.4851,31.940259266281128,24.4851,31.940259266281128C24.8367,31.852359266281127,25.1579,31.670559266281128,25.4142,31.414259266281128C25.4142,31.414259266281128,24,29.999959266281127,24,29.999959266281127C24,29.999959266281127,24,29.999959266281127,24,29.999959266281127ZM16,31.999959266281127C16,31.999959266281127,14.0597,31.514959266281128,14.0597,31.514959266281128C13.8893,32.196459266281124,14.089,32.91745926628113,14.5858,33.41425926628113C15.0825,33.910959266281125,15.8035,34.110659266281125,16.4851,33.940259266281124C16.4851,33.940259266281124,16,31.999959266281127,16,31.999959266281127C16,31.999959266281127,16,31.999959266281127,16,31.999959266281127ZM18,23.999959266281127C18,23.999959266281127,16.5858,22.585759266281126,16.5858,22.585759266281126C16.3295,22.84205926628113,16.1476,23.163259266281127,16.0597,23.514959266281128C16.0597,23.514959266281128,18,23.999959266281127,18,23.999959266281127C18,23.999959266281127,18,23.999959266281127,18,23.999959266281127ZM22,5.999999266281128C22,5.999999266281128,8,5.999999266281128,8,5.999999266281128C8,5.999999266281128,8,9.999999266281128,8,9.999999266281128C8,9.999999266281128,22,9.999999266281128,22,9.999999266281128C22,9.999999266281128,22,5.999999266281128,22,5.999999266281128C22,5.999999266281128,22,5.999999266281128,22,5.999999266281128ZM8,5.999999266281128C6.4087,5.999999266281128,4.88258,6.632139266281128,3.7573600000000003,7.757359266281128C3.7573600000000003,7.757359266281128,6.58579,10.585789266281129,6.58579,10.585789266281129C6.96086,10.210709266281128,7.46957,9.999999266281128,8,9.999999266281128C8,9.999999266281128,8,5.999999266281128,8,5.999999266281128C8,5.999999266281128,8,5.999999266281128,8,5.999999266281128ZM3.7573600000000003,7.757359266281128C2.63214,8.882579266281127,2,10.408699266281127,2,11.999959266281127C2,11.999959266281127,6,11.999959266281127,6,11.999959266281127C6,11.469569266281129,6.21071,10.960859266281128,6.58579,10.585789266281129C6.58579,10.585789266281129,3.7573600000000003,7.757359266281128,3.7573600000000003,7.757359266281128C3.7573600000000003,7.757359266281128,3.7573600000000003,7.757359266281128,3.7573600000000003,7.757359266281128ZM2,11.999959266281127C2,11.999959266281127,2,39.99995926628113,2,39.99995926628113C2,39.99995926628113,6,39.99995926628113,6,39.99995926628113C6,39.99995926628113,6,11.999959266281127,6,11.999959266281127C6,11.999959266281127,2,11.999959266281127,2,11.999959266281127C2,11.999959266281127,2,11.999959266281127,2,11.999959266281127ZM2,39.99995926628113C2,41.59125926628113,2.63214,43.11745926628113,3.7573600000000003,44.24265926628113C3.7573600000000003,44.24265926628113,6.58579,41.41425926628113,6.58579,41.41425926628113C6.21071,41.039159266281125,6,40.53045926628113,6,39.99995926628113C6,39.99995926628113,2,39.99995926628113,2,39.99995926628113C2,39.99995926628113,2,39.99995926628113,2,39.99995926628113ZM3.7573600000000003,44.24265926628113C4.88258,45.36785926628113,6.4087,45.99995926628113,8,45.99995926628113C8,45.99995926628113,8,41.99995926628113,8,41.99995926628113C7.46957,41.99995926628113,6.96086,41.78925926628113,6.58579,41.41425926628113C6.58579,41.41425926628113,3.7573600000000003,44.24265926628113,3.7573600000000003,44.24265926628113C3.7573600000000003,44.24265926628113,3.7573600000000003,44.24265926628113,3.7573600000000003,44.24265926628113ZM8,45.99995926628113C8,45.99995926628113,36,45.99995926628113,36,45.99995926628113C36,45.99995926628113,36,41.99995926628113,36,41.99995926628113C36,41.99995926628113,8,41.99995926628113,8,41.99995926628113C8,41.99995926628113,8,45.99995926628113,8,45.99995926628113C8,45.99995926628113,8,45.99995926628113,8,45.99995926628113ZM36,45.99995926628113C37.5913,45.99995926628113,39.1174,45.36785926628113,40.2426,44.24265926628113C40.2426,44.24265926628113,37.4142,41.41425926628113,37.4142,41.41425926628113C37.0391,41.78925926628113,36.5304,41.99995926628113,36,41.99995926628113C36,41.99995926628113,36,45.99995926628113,36,45.99995926628113C36,45.99995926628113,36,45.99995926628113,36,45.99995926628113ZM40.2426,44.24265926628113C41.3679,43.11745926628113,42,41.59125926628113,42,39.99995926628113C42,39.99995926628113,38,39.99995926628113,38,39.99995926628113C38,40.53045926628113,37.7893,41.039159266281125,37.4142,41.41425926628113C37.4142,41.41425926628113,40.2426,44.24265926628113,40.2426,44.24265926628113C40.2426,44.24265926628113,40.2426,44.24265926628113,40.2426,44.24265926628113ZM42,39.99995926628113C42,39.99995926628113,42,25.999959266281127,42,25.999959266281127C42,25.999959266281127,38,25.999959266281127,38,25.999959266281127C38,25.999959266281127,38,39.99995926628113,38,39.99995926628113C38,39.99995926628113,42,39.99995926628113,42,39.99995926628113C42,39.99995926628113,42,39.99995926628113,42,39.99995926628113ZM38.4142,6.414209266281128C38.8348,5.993639266281128,39.4052,5.757359266281128,40,5.757359266281128C40,5.757359266281128,40,1.757359266281128,40,1.757359266281128C38.3443,1.757359266281128,36.7565,2.415059266281128,35.5858,3.585789266281128C35.5858,3.585789266281128,38.4142,6.414209266281128,38.4142,6.414209266281128C38.4142,6.414209266281128,38.4142,6.414209266281128,38.4142,6.414209266281128ZM40,5.757359266281128C40.5948,5.757359266281128,41.1652,5.993639266281128,41.5858,6.414209266281128C41.5858,6.414209266281128,44.4142,3.585789266281128,44.4142,3.585789266281128C43.2435,2.415059266281128,41.6557,1.757359266281128,40,1.757359266281128C40,1.757359266281128,40,5.757359266281128,40,5.757359266281128C40,5.757359266281128,40,5.757359266281128,40,5.757359266281128ZM41.5858,6.414209266281128C42.0064,6.834789266281128,42.2426,7.405219266281128,42.2426,7.999999266281128C42.2426,7.999999266281128,46.2426,7.999999266281128,46.2426,7.999999266281128C46.2426,6.344349266281128,45.5849,4.756509266281128,44.4142,3.585789266281128C44.4142,3.585789266281128,41.5858,6.414209266281128,41.5858,6.414209266281128C41.5858,6.414209266281128,41.5858,6.414209266281128,41.5858,6.414209266281128ZM42.2426,7.999999266281128C42.2426,8.594779266281128,42.0064,9.165209266281128,41.5858,9.585789266281129C41.5858,9.585789266281129,44.4142,12.414159266281128,44.4142,12.414159266281128C45.5849,11.243489266281127,46.2426,9.655649266281127,46.2426,7.999999266281128C46.2426,7.999999266281128,42.2426,7.999999266281128,42.2426,7.999999266281128C42.2426,7.999999266281128,42.2426,7.999999266281128,42.2426,7.999999266281128ZM41.5858,9.585789266281129C41.5858,9.585789266281129,22.5858,28.585759266281126,22.5858,28.585759266281126C22.5858,28.585759266281126,25.4142,31.414259266281128,25.4142,31.414259266281128C25.4142,31.414259266281128,44.4142,12.414159266281128,44.4142,12.414159266281128C44.4142,12.414159266281128,41.5858,9.585789266281129,41.5858,9.585789266281129C41.5858,9.585789266281129,41.5858,9.585789266281129,41.5858,9.585789266281129ZM23.5149,28.059759266281127C23.5149,28.059759266281127,15.5149,30.059759266281127,15.5149,30.059759266281127C15.5149,30.059759266281127,16.4851,33.940259266281124,16.4851,33.940259266281124C16.4851,33.940259266281124,24.4851,31.940259266281128,24.4851,31.940259266281128C24.4851,31.940259266281128,23.5149,28.059759266281127,23.5149,28.059759266281127C23.5149,28.059759266281127,23.5149,28.059759266281127,23.5149,28.059759266281127ZM17.9403,32.48505926628113C17.9403,32.48505926628113,19.9403,24.485059266281127,19.9403,24.485059266281127C19.9403,24.485059266281127,16.0597,23.514959266281128,16.0597,23.514959266281128C16.0597,23.514959266281128,14.0597,31.514959266281128,14.0597,31.514959266281128C14.0597,31.514959266281128,17.9403,32.48505926628113,17.9403,32.48505926628113C17.9403,32.48505926628113,17.9403,32.48505926628113,17.9403,32.48505926628113ZM19.4142,25.414259266281128C19.4142,25.414259266281128,38.4142,6.414209266281128,38.4142,6.414209266281128C38.4142,6.414209266281128,35.5858,3.585789266281128,35.5858,3.585789266281128C35.5858,3.585789266281128,16.5858,22.585759266281126,16.5858,22.585759266281126C16.5858,22.585759266281126,19.4142,25.414259266281128,19.4142,25.414259266281128C19.4142,25.414259266281128,19.4142,25.414259266281128,19.4142,25.414259266281128Z" fill="#1E1E1E" fill-opacity="1"/></g></g></svg>