<svg xmlns="http://www.w3.org/2000/svg" xmlns:xlink="http://www.w3.org/1999/xlink" fill="none" version="1.1" width="48" height="48" viewBox="0 0 48 48"><defs><clipPath id="master_svg0_0_254"><rect x="0" y="0" width="48" height="48" rx="0"/></clipPath></defs><g clip-path="url(#master_svg0_0_254)"><g><path d="M11.414212384185792,19.414202384185792C12.19530238418579,18.63320238418579,12.19530238418579,17.36680238418579,11.414212384185792,16.58580238418579C10.633162384185791,15.804702384185791,9.36684238418579,15.804702384185791,8.58579238418579,16.58580238418579C8.58579238418579,16.58580238418579,11.414212384185792,19.414202384185792,11.414212384185792,19.414202384185792C11.414212384185792,19.414202384185792,11.414212384185792,19.414202384185792,11.414212384185792,19.414202384185792ZM4.000002384185791,24.00000238418579C4.000002384185791,24.00000238418579,2.585789384185791,22.58580238418579,2.585789384185791,22.58580238418579C1.804739384185791,23.366802384185792,1.804739384185791,24.63320238418579,2.585789384185791,25.414202384185792C2.585789384185791,25.414202384185792,4.000002384185791,24.00000238418579,4.000002384185791,24.00000238418579C4.000002384185791,24.00000238418579,4.000002384185791,24.00000238418579,4.000002384185791,24.00000238418579ZM8.58579238418579,31.414202384185792C9.36684238418579,32.195302384185794,10.633162384185791,32.195302384185794,11.414212384185792,31.414202384185792C12.19530238418579,30.63320238418579,12.19530238418579,29.366802384185792,11.414212384185792,28.58580238418579C11.414212384185792,28.58580238418579,8.58579238418579,31.414202384185792,8.58579238418579,31.414202384185792C8.58579238418579,31.414202384185792,8.58579238418579,31.414202384185792,8.58579238418579,31.414202384185792ZM16.58580238418579,8.58579238418579C15.804702384185791,9.36684238418579,15.804702384185791,10.633162384185791,16.58580238418579,11.414212384185792C17.36680238418579,12.19530238418579,18.63320238418579,12.19530238418579,19.414202384185792,11.414212384185792C19.414202384185792,11.414212384185792,16.58580238418579,8.58579238418579,16.58580238418579,8.58579238418579C16.58580238418579,8.58579238418579,16.58580238418579,8.58579238418579,16.58580238418579,8.58579238418579ZM24.00000238418579,4.000002384185791C24.00000238418579,4.000002384185791,25.414202384185792,2.585789384185791,25.414202384185792,2.585789384185791C24.63320238418579,1.804739384185791,23.366802384185792,1.804739384185791,22.58580238418579,2.585789384185791C22.58580238418579,2.585789384185791,24.00000238418579,4.000002384185791,24.00000238418579,4.000002384185791C24.00000238418579,4.000002384185791,24.00000238418579,4.000002384185791,24.00000238418579,4.000002384185791ZM28.58580238418579,11.414212384185792C29.366802384185792,12.19530238418579,30.63320238418579,12.19530238418579,31.414202384185792,11.414212384185792C32.195302384185794,10.633162384185791,32.195302384185794,9.36684238418579,31.414202384185792,8.58579238418579C31.414202384185792,8.58579238418579,28.58580238418579,11.414212384185792,28.58580238418579,11.414212384185792C28.58580238418579,11.414212384185792,28.58580238418579,11.414212384185792,28.58580238418579,11.414212384185792ZM31.414202384185792,39.41420238418579C32.195302384185794,38.63320238418579,32.195302384185794,37.36680238418579,31.414202384185792,36.58580238418579C30.63320238418579,35.80470238418579,29.366802384185792,35.80470238418579,28.58580238418579,36.58580238418579C28.58580238418579,36.58580238418579,31.414202384185792,39.41420238418579,31.414202384185792,39.41420238418579C31.414202384185792,39.41420238418579,31.414202384185792,39.41420238418579,31.414202384185792,39.41420238418579ZM24.00000238418579,44.00000238418579C24.00000238418579,44.00000238418579,22.58580238418579,45.41420238418579,22.58580238418579,45.41420238418579C23.366802384185792,46.195302384185794,24.63320238418579,46.195302384185794,25.414202384185792,45.41420238418579C25.414202384185792,45.41420238418579,24.00000238418579,44.00000238418579,24.00000238418579,44.00000238418579C24.00000238418579,44.00000238418579,24.00000238418579,44.00000238418579,24.00000238418579,44.00000238418579ZM19.414202384185792,36.58580238418579C18.63320238418579,35.80470238418579,17.36680238418579,35.80470238418579,16.58580238418579,36.58580238418579C15.804702384185791,37.36680238418579,15.804702384185791,38.63320238418579,16.58580238418579,39.41420238418579C16.58580238418579,39.41420238418579,19.414202384185792,36.58580238418579,19.414202384185792,36.58580238418579C19.414202384185792,36.58580238418579,19.414202384185792,36.58580238418579,19.414202384185792,36.58580238418579ZM39.41420238418579,16.58580238418579C38.63320238418579,15.804702384185791,37.36680238418579,15.804702384185791,36.58580238418579,16.58580238418579C35.80470238418579,17.36680238418579,35.80470238418579,18.63320238418579,36.58580238418579,19.414202384185792C36.58580238418579,19.414202384185792,39.41420238418579,16.58580238418579,39.41420238418579,16.58580238418579C39.41420238418579,16.58580238418579,39.41420238418579,16.58580238418579,39.41420238418579,16.58580238418579ZM44.00000238418579,24.00000238418579C44.00000238418579,24.00000238418579,45.41420238418579,25.414202384185792,45.41420238418579,25.414202384185792C46.195302384185794,24.63320238418579,46.195302384185794,23.366802384185792,45.41420238418579,22.58580238418579C45.41420238418579,22.58580238418579,44.00000238418579,24.00000238418579,44.00000238418579,24.00000238418579C44.00000238418579,24.00000238418579,44.00000238418579,24.00000238418579,44.00000238418579,24.00000238418579ZM36.58580238418579,28.58580238418579C35.80470238418579,29.366802384185792,35.80470238418579,30.63320238418579,36.58580238418579,31.414202384185792C37.36680238418579,32.195302384185794,38.63320238418579,32.195302384185794,39.41420238418579,31.414202384185792C39.41420238418579,31.414202384185792,36.58580238418579,28.58580238418579,36.58580238418579,28.58580238418579C36.58580238418579,28.58580238418579,36.58580238418579,28.58580238418579,36.58580238418579,28.58580238418579ZM8.58579238418579,16.58580238418579C8.58579238418579,16.58580238418579,2.585789384185791,22.58580238418579,2.585789384185791,22.58580238418579C2.585789384185791,22.58580238418579,5.414212384185792,25.414202384185792,5.414212384185792,25.414202384185792C5.414212384185792,25.414202384185792,11.414212384185792,19.414202384185792,11.414212384185792,19.414202384185792C11.414212384185792,19.414202384185792,8.58579238418579,16.58580238418579,8.58579238418579,16.58580238418579C8.58579238418579,16.58580238418579,8.58579238418579,16.58580238418579,8.58579238418579,16.58580238418579ZM2.585789384185791,25.414202384185792C2.585789384185791,25.414202384185792,8.58579238418579,31.414202384185792,8.58579238418579,31.414202384185792C8.58579238418579,31.414202384185792,11.414212384185792,28.58580238418579,11.414212384185792,28.58580238418579C11.414212384185792,28.58580238418579,5.414212384185792,22.58580238418579,5.414212384185792,22.58580238418579C5.414212384185792,22.58580238418579,2.585789384185791,25.414202384185792,2.585789384185791,25.414202384185792C2.585789384185791,25.414202384185792,2.585789384185791,25.414202384185792,2.585789384185791,25.414202384185792ZM19.414202384185792,11.414212384185792C19.414202384185792,11.414212384185792,25.414202384185792,5.414212384185792,25.414202384185792,5.414212384185792C25.414202384185792,5.414212384185792,22.58580238418579,2.585789384185791,22.58580238418579,2.585789384185791C22.58580238418579,2.585789384185791,16.58580238418579,8.58579238418579,16.58580238418579,8.58579238418579C16.58580238418579,8.58579238418579,19.414202384185792,11.414212384185792,19.414202384185792,11.414212384185792C19.414202384185792,11.414212384185792,19.414202384185792,11.414212384185792,19.414202384185792,11.414212384185792ZM22.58580238418579,5.414212384185792C22.58580238418579,5.414212384185792,28.58580238418579,11.414212384185792,28.58580238418579,11.414212384185792C28.58580238418579,11.414212384185792,31.414202384185792,8.58579238418579,31.414202384185792,8.58579238418579C31.414202384185792,8.58579238418579,25.414202384185792,2.585789384185791,25.414202384185792,2.585789384185791C25.414202384185792,2.585789384185791,22.58580238418579,5.414212384185792,22.58580238418579,5.414212384185792C22.58580238418579,5.414212384185792,22.58580238418579,5.414212384185792,22.58580238418579,5.414212384185792ZM28.58580238418579,36.58580238418579C28.58580238418579,36.58580238418579,22.58580238418579,42.58580238418579,22.58580238418579,42.58580238418579C22.58580238418579,42.58580238418579,25.414202384185792,45.41420238418579,25.414202384185792,45.41420238418579C25.414202384185792,45.41420238418579,31.414202384185792,39.41420238418579,31.414202384185792,39.41420238418579C31.414202384185792,39.41420238418579,28.58580238418579,36.58580238418579,28.58580238418579,36.58580238418579C28.58580238418579,36.58580238418579,28.58580238418579,36.58580238418579,28.58580238418579,36.58580238418579ZM25.414202384185792,42.58580238418579C25.414202384185792,42.58580238418579,19.414202384185792,36.58580238418579,19.414202384185792,36.58580238418579C19.414202384185792,36.58580238418579,16.58580238418579,39.41420238418579,16.58580238418579,39.41420238418579C16.58580238418579,39.41420238418579,22.58580238418579,45.41420238418579,22.58580238418579,45.41420238418579C22.58580238418579,45.41420238418579,25.414202384185792,42.58580238418579,25.414202384185792,42.58580238418579C25.414202384185792,42.58580238418579,25.414202384185792,42.58580238418579,25.414202384185792,42.58580238418579ZM36.58580238418579,19.414202384185792C36.58580238418579,19.414202384185792,42.58580238418579,25.414202384185792,42.58580238418579,25.414202384185792C42.58580238418579,25.414202384185792,45.41420238418579,22.58580238418579,45.41420238418579,22.58580238418579C45.41420238418579,22.58580238418579,39.41420238418579,16.58580238418579,39.41420238418579,16.58580238418579C39.41420238418579,16.58580238418579,36.58580238418579,19.414202384185792,36.58580238418579,19.414202384185792C36.58580238418579,19.414202384185792,36.58580238418579,19.414202384185792,36.58580238418579,19.414202384185792ZM42.58580238418579,22.58580238418579C42.58580238418579,22.58580238418579,36.58580238418579,28.58580238418579,36.58580238418579,28.58580238418579C36.58580238418579,28.58580238418579,39.41420238418579,31.414202384185792,39.41420238418579,31.414202384185792C39.41420238418579,31.414202384185792,45.41420238418579,25.414202384185792,45.41420238418579,25.414202384185792C45.41420238418579,25.414202384185792,42.58580238418579,22.58580238418579,42.58580238418579,22.58580238418579C42.58580238418579,22.58580238418579,42.58580238418579,22.58580238418579,42.58580238418579,22.58580238418579ZM4.000002384185791,26.00000238418579C4.000002384185791,26.00000238418579,44.00000238418579,26.00000238418579,44.00000238418579,26.00000238418579C44.00000238418579,26.00000238418579,44.00000238418579,22.00000238418579,44.00000238418579,22.00000238418579C44.00000238418579,22.00000238418579,4.000002384185791,22.00000238418579,4.000002384185791,22.00000238418579C4.000002384185791,22.00000238418579,4.000002384185791,26.00000238418579,4.000002384185791,26.00000238418579C4.000002384185791,26.00000238418579,4.000002384185791,26.00000238418579,4.000002384185791,26.00000238418579ZM22.00000238418579,4.000002384185791C22.00000238418579,4.000002384185791,22.00000238418579,44.00000238418579,22.00000238418579,44.00000238418579C22.00000238418579,44.00000238418579,26.00000238418579,44.00000238418579,26.00000238418579,44.00000238418579C26.00000238418579,44.00000238418579,26.00000238418579,4.000002384185791,26.00000238418579,4.000002384185791C26.00000238418579,4.000002384185791,22.00000238418579,4.000002384185791,22.00000238418579,4.000002384185791C22.00000238418579,4.000002384185791,22.00000238418579,4.000002384185791,22.00000238418579,4.000002384185791Z" fill="#1E1E1E" fill-opacity="1"/></g></g></svg>