<svg xmlns="http://www.w3.org/2000/svg" xmlns:xlink="http://www.w3.org/1999/xlink" fill="none" version="1.1" width="48" height="48" viewBox="0 0 48 48"><defs><clipPath id="master_svg0_0_258"><rect x="0" y="0" width="48" height="48" rx="0"/></clipPath></defs><g clip-path="url(#master_svg0_0_258)"><g><path d="M38.134734375,11.86602C37.353734375,11.08484,36.087434375,11.08463,35.306234375,11.86556C34.525134375,12.6465,34.524834375,13.9128,35.305834375,14.694C35.305834375,14.694,38.134734375,11.86602,38.134734375,11.86602C38.134734375,11.86602,38.134734375,11.86602,38.134734375,11.86602ZM23.990234375,44.0058C23.990234375,44.0058,23.990234375,46.0058,23.990234375,46.0058C23.990234375,46.0058,23.990234375,44.0058,23.990234375,44.0058C23.990234375,44.0058,23.990234375,44.0058,23.990234375,44.0058ZM12.674684375,14.694C13.455604375,13.9128,13.455404375,12.6465,12.674224375,11.86556C11.893054375,11.08463,10.626724375,11.08484,9.845794375,11.86602C9.845794375,11.86602,12.674684375,14.694,12.674684375,14.694C12.674684375,14.694,12.674684375,14.694,12.674684375,14.694ZM26.000234375,4C26.000234375,2.89543,25.104834375,2,24.000234375,2C22.895634375,2,22.000234375,2.89543,22.000234375,4C22.000234375,4,26.000234375,4,26.000234375,4C26.000234375,4,26.000234375,4,26.000234375,4ZM22.000234375,24C22.000234375,25.1046,22.895634375,26,24.000234375,26C25.104834375,26,26.000234375,25.1046,26.000234375,24C26.000234375,24,22.000234375,24,22.000234375,24C22.000234375,24,22.000234375,24,22.000234375,24ZM35.305834375,14.694C37.542934375,16.931800000000003,39.066234375,19.7828,39.683234375,22.8863C39.683234375,22.8863,43.606434375,22.1064,43.606434375,22.1064C42.835234375,18.227,40.931034375,14.6633,38.134734375,11.86602C38.134734375,11.86602,35.305834375,14.694,35.305834375,14.694C35.305834375,14.694,35.305834375,14.694,35.305834375,14.694ZM39.683234375,22.8863C40.300134375,25.9899,39.982934375,29.2067,38.771834375,32.129999999999995C38.771834375,32.129999999999995,42.467234375,33.661,42.467234375,33.661C43.981134375,30.0069,44.377634375,25.9859,43.606434375,22.1064C43.606434375,22.1064,39.683234375,22.8863,39.683234375,22.8863C39.683234375,22.8863,39.683234375,22.8863,39.683234375,22.8863ZM38.771834375,32.129999999999995C37.560634375,35.0533,35.509934375,37.5518,32.878834375,39.3097C32.878834375,39.3097,35.100934375,42.6357,35.100934375,42.6357C38.389834375,40.4384,40.953234375,37.3152,42.467234375,33.661C42.467234375,33.661,38.771834375,32.129999999999995,38.771834375,32.129999999999995C38.771834375,32.129999999999995,38.771834375,32.129999999999995,38.771834375,32.129999999999995ZM32.878834375,39.3097C30.247734375,41.0676,27.154534375,42.0058,23.990234375,42.0058C23.990234375,42.0058,23.990234375,46.0058,23.990234375,46.0058C27.945634375,46.0058,31.812134375,44.833,35.100934375,42.6357C35.100934375,42.6357,32.878834375,39.3097,32.878834375,39.3097C32.878834375,39.3097,32.878834375,39.3097,32.878834375,39.3097ZM23.990234375,42.0058C20.825934375,42.0058,17.732734375,41.0676,15.101634375,39.3097C15.101634375,39.3097,12.879514375,42.6357,12.879514375,42.6357C16.168334375,44.833,20.034934375,46.0058,23.990234375,46.0058C23.990234375,46.0058,23.990234375,42.0058,23.990234375,42.0058C23.990234375,42.0058,23.990234375,42.0058,23.990234375,42.0058ZM15.101634375,39.3097C12.470584375,37.5518,10.419824375000001,35.0533,9.208674375000001,32.129999999999995C9.208674375000001,32.129999999999995,5.513274375,33.661,5.513274375,33.661C7.027224374999999,37.3152,9.590674374999999,40.4384,12.879514375,42.6357C12.879514375,42.6357,15.101634375,39.3097,15.101634375,39.3097C15.101634375,39.3097,15.101634375,39.3097,15.101634375,39.3097ZM9.208674375000001,32.129999999999995C7.997514375,29.2067,7.680354375,25.9899,8.297294375,22.8863C8.297294375,22.8863,4.374056375,22.1064,4.374056375,22.1064C3.6028863749999998,25.9859,3.999336125,30.0069,5.513274375,33.661C5.513274375,33.661,9.208674375000001,32.129999999999995,9.208674375000001,32.129999999999995C9.208674375000001,32.129999999999995,9.208674375000001,32.129999999999995,9.208674375000001,32.129999999999995ZM8.297294375,22.8863C8.914234375,19.7828,10.437574375,16.931800000000003,12.674684375,14.694C12.674684375,14.694,9.845794375,11.86602,9.845794375,11.86602C7.049404375,14.6633,5.145234375,18.227,4.374056375,22.1064C4.374056375,22.1064,8.297294375,22.8863,8.297294375,22.8863C8.297294375,22.8863,8.297294375,22.8863,8.297294375,22.8863ZM22.000234375,4C22.000234375,4,22.000234375,24,22.000234375,24C22.000234375,24,26.000234375,24,26.000234375,24C26.000234375,24,26.000234375,4,26.000234375,4C26.000234375,4,22.000234375,4,22.000234375,4C22.000234375,4,22.000234375,4,22.000234375,4Z" fill="#1E1E1E" fill-opacity="1"/></g></g></svg>