<svg xmlns="http://www.w3.org/2000/svg" xmlns:xlink="http://www.w3.org/1999/xlink" fill="none" version="1.1" width="48" height="48" viewBox="0 0 48 48"><defs><clipPath id="master_svg0_0_261"><rect x="0" y="0" width="48" height="48" rx="0"/></clipPath></defs><g clip-path="url(#master_svg0_0_261)"><g><path d="M38.8,30C38.8,30,40.6297,30.8075,40.6297,30.8075C40.6326,30.801,40.6355,30.7944,40.6383,30.7879C40.6383,30.7879,38.8,30,38.8,30C38.8,30,38.8,30,38.8,30ZM39.46,33.64C39.46,33.64,38.0303,35.0385,38.0303,35.0385C38.0354,35.0438,38.0406,35.049,38.0458,35.0542C38.0458,35.0542,39.46,33.64,39.46,33.64C39.46,33.64,39.46,33.64,39.46,33.64ZM39.58,33.76C39.58,33.76,38.1658,35.1742,38.1658,35.1742C38.1658,35.1742,38.1666,35.175,38.1666,35.175C38.1666,35.175,39.58,33.76,39.58,33.76C39.58,33.76,39.58,33.76,39.58,33.76ZM39.58,39.42C39.58,39.42,38.1666,38.005,38.1666,38.005C38.1666,38.005,38.165,38.0066,38.165,38.0066C38.165,38.0066,39.58,39.42,39.58,39.42C39.58,39.42,39.58,39.42,39.58,39.42ZM33.92,39.42C33.92,39.42,35.335,38.0066,35.335,38.0066C35.335,38.0066,35.3342,38.0058,35.3342,38.0058C35.3342,38.0058,33.92,39.42,33.92,39.42C33.92,39.42,33.92,39.42,33.92,39.42ZM33.8,39.3C33.8,39.3,35.2142,37.8858,35.2142,37.8858C35.209,37.8806,35.2038,37.8754,35.1985,37.8703C35.1985,37.8703,33.8,39.3,33.8,39.3C33.8,39.3,33.8,39.3,33.8,39.3ZM30.16,38.64C30.16,38.64,30.9479,40.4783,30.9479,40.4783C30.9544,40.4755,30.961,40.4726,30.9675,40.4697C30.9675,40.4697,30.16,38.64,30.16,38.64C30.16,38.64,30.16,38.64,30.16,38.64ZM28.16,41.66C28.16,41.66,26.16,41.652,26.16,41.652C26.16,41.652,26.16,41.66,26.16,41.66C26.16,41.66,28.16,41.66,28.16,41.66C28.16,41.66,28.16,41.66,28.16,41.66ZM20.16,41.82C20.16,41.82,22.16,41.82,22.16,41.82C22.16,41.8044,22.1598,41.7888,22.1595,41.7732C22.1595,41.7732,20.16,41.82,20.16,41.82C20.16,41.82,20.16,41.82,20.16,41.82ZM18,38.8C18,38.8,17.1925,40.6297,17.1925,40.6297C17.231,40.6467,17.2701,40.6625,17.3096,40.6771C17.3096,40.6771,18,38.8,18,38.8C18,38.8,18,38.8,18,38.8ZM14.36,39.46C14.36,39.46,12.9615,38.0303,12.9615,38.0303C12.9562,38.0354,12.951,38.0406,12.9458,38.0458C12.9458,38.0458,14.36,39.46,14.36,39.46C14.36,39.46,14.36,39.46,14.36,39.46ZM14.24,39.58C14.24,39.58,12.8258,38.1658,12.8258,38.1658C12.8258,38.1658,12.825,38.1666,12.825,38.1666C12.825,38.1666,14.24,39.58,14.24,39.58C14.24,39.58,14.24,39.58,14.24,39.58ZM8.58,39.58C8.58,39.58,9.995,38.1666,9.995,38.1666C9.995,38.1666,9.99343,38.165,9.99343,38.165C9.99343,38.165,8.58,39.58,8.58,39.58C8.58,39.58,8.58,39.58,8.58,39.58ZM7.40685,36.75C7.40685,36.75,9.40685,36.75,9.40685,36.75C9.40685,36.75,7.40685,36.75,7.40685,36.75C7.40685,36.75,7.40685,36.75,7.40685,36.75ZM8.58,33.92C8.58,33.92,9.99343,35.335,9.99343,35.335C9.99343,35.335,9.99421,35.3342,9.99421,35.3342C9.99421,35.3342,8.58,33.92,8.58,33.92C8.58,33.92,8.58,33.92,8.58,33.92ZM8.7,33.8C8.7,33.8,10.1142,35.2142,10.1142,35.2142C10.1194,35.209,10.1246,35.2038,10.1297,35.1985C10.1297,35.1985,8.7,33.8,8.7,33.8C8.7,33.8,8.7,33.8,8.7,33.8ZM9.36,30.16C9.36,30.16,7.52172,30.9479,7.52172,30.9479C7.52454,30.9544,7.52739,30.961,7.53027,30.9675C7.53027,30.9675,9.36,30.16,9.36,30.16C9.36,30.16,9.36,30.16,9.36,30.16ZM6.34,28.16C6.34,28.16,6.34798,26.16,6.34798,26.16C6.34798,26.16,6.34,26.16,6.34,26.16C6.34,26.16,6.34,28.16,6.34,28.16C6.34,28.16,6.34,28.16,6.34,28.16ZM2,24.16C2,24.16,0,24.16,0,24.16C0,24.16,2,24.16,2,24.16C2,24.16,2,24.16,2,24.16ZM6,20.16C6,20.16,6,22.16,6,22.16C6,22.16,6,20.16,6,20.16C6,20.16,6,20.16,6,20.16ZM6.18,20.16C6.18,20.16,6.18,22.16,6.18,22.16C6.19559,22.16,6.21118,22.1598,6.22677,22.1595C6.22677,22.1595,6.18,20.16,6.18,20.16C6.18,20.16,6.18,20.16,6.18,20.16ZM9.2,18C9.2,18,7.37027,17.1925,7.37027,17.1925C7.35326,17.231,7.33747,17.2701,7.32293,17.3096C7.32293,17.3096,9.2,18,9.2,18C9.2,18,9.2,18,9.2,18ZM8.54,14.36C8.54,14.36,9.96973,12.9615,9.96973,12.9615C9.96458,12.9562,9.95941,12.951,9.95421,12.9458C9.95421,12.9458,8.54,14.36,8.54,14.36C8.54,14.36,8.54,14.36,8.54,14.36ZM8.42,14.24C8.42,14.24,9.83421,12.8258,9.83421,12.8258C9.83421,12.8258,9.83343,12.825,9.83343,12.825C9.83343,12.825,8.42,14.24,8.42,14.24C8.42,14.24,8.42,14.24,8.42,14.24ZM8.42,8.58C8.42,8.58,9.83343,9.995,9.83343,9.995C9.83343,9.995,9.835,9.99343,9.835,9.99343C9.835,9.99343,8.42,8.58,8.42,8.58C8.42,8.58,8.42,8.58,8.42,8.58ZM14.08,8.58C14.08,8.58,12.665,9.99343,12.665,9.99343C12.665,9.99343,12.6658,9.99421,12.6658,9.99421C12.6658,9.99421,14.08,8.58,14.08,8.58C14.08,8.58,14.08,8.58,14.08,8.58ZM14.2,8.7C14.2,8.7,12.7858,10.1142,12.7858,10.1142C12.791,10.1194,12.7962,10.1246,12.8015,10.1297C12.8015,10.1297,14.2,8.7,14.2,8.7C14.2,8.7,14.2,8.7,14.2,8.7ZM17.84,9.36C17.84,9.36,17.84,7.36,17.84,7.36C17.5619,7.36,17.2869,7.41799,17.0325,7.53027C17.0325,7.53027,17.84,9.36,17.84,9.36C17.84,9.36,17.84,9.36,17.84,9.36ZM18,9.36C18,9.36,18,11.36,18,11.36C18.2709,11.36,18.5389,11.305,18.7879,11.1983C18.7879,11.1983,18,9.36,18,9.36C18,9.36,18,9.36,18,9.36ZM20,6.34C20,6.34,22,6.34798,22,6.34798C22,6.34798,22,6.34,22,6.34C22,6.34,20,6.34,20,6.34C20,6.34,20,6.34,20,6.34ZM24,2C24,2,24,0,24,0C24,0,24,2,24,2C24,2,24,2,24,2ZM28,6.18C28,6.18,26,6.18,26,6.18C26,6.18,26,6.18798,26,6.18798C26,6.18798,28,6.18,28,6.18C28,6.18,28,6.18,28,6.18ZM30,9.2C30,9.2,30.8075,7.37027,30.8075,7.37027C30.801,7.36739,30.7944,7.36454,30.7879,7.36172C30.7879,7.36172,30,9.2,30,9.2C30,9.2,30,9.2,30,9.2ZM33.64,8.54C33.64,8.54,35.0385,9.96973,35.0385,9.96973C35.0438,9.96458,35.049,9.95941,35.0542,9.95421C35.0542,9.95421,33.64,8.54,33.64,8.54C33.64,8.54,33.64,8.54,33.64,8.54ZM33.76,8.42C33.76,8.42,35.1742,9.83421,35.1742,9.83421C35.1742,9.83421,35.175,9.83343,35.175,9.83343C35.175,9.83343,33.76,8.42,33.76,8.42C33.76,8.42,33.76,8.42,33.76,8.42ZM36.59,7.24685C36.59,7.24685,36.59,9.24685,36.59,9.24685C36.59,9.24685,36.59,7.24685,36.59,7.24685C36.59,7.24685,36.59,7.24685,36.59,7.24685ZM39.42,8.42C39.42,8.42,38.005,9.83343,38.005,9.83343C38.005,9.83343,38.0066,9.835,38.0066,9.835C38.0066,9.835,39.42,8.42,39.42,8.42C39.42,8.42,39.42,8.42,39.42,8.42ZM39.42,14.08C39.42,14.08,38.0066,12.665,38.0066,12.665C38.0066,12.665,38.0058,12.6658,38.0058,12.6658C38.0058,12.6658,39.42,14.08,39.42,14.08C39.42,14.08,39.42,14.08,39.42,14.08ZM39.3,14.2C39.3,14.2,37.8858,12.7858,37.8858,12.7858C37.8806,12.791,37.8754,12.7962,37.8703,12.8015C37.8703,12.8015,39.3,14.2,39.3,14.2C39.3,14.2,39.3,14.2,39.3,14.2ZM38.64,17.84C38.64,17.84,40.64,17.84,40.64,17.84C40.64,17.5619,40.582,17.2869,40.4697,17.0325C40.4697,17.0325,38.64,17.84,38.64,17.84C38.64,17.84,38.64,17.84,38.64,17.84ZM38.64,18C38.64,18,36.64,18,36.64,18C36.64,18.2709,36.695,18.5389,36.8017,18.7879C36.8017,18.7879,38.64,18,38.64,18C38.64,18,38.64,18,38.64,18ZM41.66,20C41.66,20,41.652,22,41.652,22C41.652,22,41.66,22,41.66,22C41.66,22,41.66,20,41.66,20C41.66,20,41.66,20,41.66,20ZM41.82,28C41.82,28,41.82,26,41.82,26C41.82,26,41.812,26,41.812,26C41.812,26,41.82,28,41.82,28C41.82,28,41.82,28,41.82,28ZM28,24C28,26.2091,26.2091,28,24,28C24,28,24,32,24,32C28.4183,32,32,28.4183,32,24C32,24,28,24,28,24C28,24,28,24,28,24ZM24,28C21.7909,28,20,26.2091,20,24C20,24,16,24,16,24C16,28.4183,19.5817,32,24,32C24,32,24,28,24,28C24,28,24,28,24,28ZM20,24C20,21.7909,21.7909,20,24,20C24,20,24,16,24,16C19.5817,16,16,19.5817,16,24C16,24,20,24,20,24C20,24,20,24,20,24ZM24,20C26.2091,20,28,21.7909,28,24C28,24,32,24,32,24C32,19.5817,28.4183,16,24,16C24,16,24,20,24,20C24,20,24,20,24,20ZM36.9703,29.1925C36.5427,30.1613,36.4151,31.236,36.6041,32.278C36.6041,32.278,40.5399,31.5644,40.5399,31.5644C40.4936,31.3088,40.5248,31.0452,40.6297,30.8075C40.6297,30.8075,36.9703,29.1925,36.9703,29.1925C36.9703,29.1925,36.9703,29.1925,36.9703,29.1925ZM36.6041,32.278C36.793,33.32,37.2898,34.2815,38.0303,35.0385C38.0303,35.0385,40.8897,32.2415,40.8897,32.2415C40.7081,32.0558,40.5862,31.8199,40.5399,31.5644C40.5399,31.5644,36.6041,32.278,36.6041,32.278C36.6041,32.278,36.6041,32.278,36.6041,32.278ZM38.0458,35.0542C38.0458,35.0542,38.1658,35.1742,38.1658,35.1742C38.1658,35.1742,40.9942,32.3458,40.9942,32.3458C40.9942,32.3458,40.8742,32.2258,40.8742,32.2258C40.8742,32.2258,38.0458,35.0542,38.0458,35.0542C38.0458,35.0542,38.0458,35.0542,38.0458,35.0542ZM38.1666,35.175C38.3525,35.3607,38.5,35.5813,38.6007,35.8241C38.6007,35.8241,42.2958,34.2924,42.2958,34.2924C41.9938,33.564,41.5513,32.9022,40.9934,32.345C40.9934,32.345,38.1666,35.175,38.1666,35.175C38.1666,35.175,38.1666,35.175,38.1666,35.175ZM38.6007,35.8241C38.7013,36.0669,38.7531,36.3272,38.7531,36.59C38.7531,36.59,42.7531,36.59,42.7531,36.59C42.7531,35.8015,42.5977,35.0207,42.2958,34.2924C42.2958,34.2924,38.6007,35.8241,38.6007,35.8241C38.6007,35.8241,38.6007,35.8241,38.6007,35.8241ZM38.7531,36.59C38.7531,36.8528,38.7013,37.1131,38.6007,37.3559C38.6007,37.3559,42.2958,38.8876,42.2958,38.8876C42.5977,38.1593,42.7531,37.3785,42.7531,36.59C42.7531,36.59,38.7531,36.59,38.7531,36.59C38.7531,36.59,38.7531,36.59,38.7531,36.59ZM38.6007,37.3559C38.5,37.5987,38.3525,37.8193,38.1666,38.005C38.1666,38.005,40.9934,40.835,40.9934,40.835C41.5513,40.2778,41.9938,39.616,42.2958,38.8876C42.2958,38.8876,38.6007,37.3559,38.6007,37.3559C38.6007,37.3559,38.6007,37.3559,38.6007,37.3559ZM38.165,38.0066C37.9793,38.1925,37.7587,38.34,37.5159,38.4407C37.5159,38.4407,39.0476,42.1358,39.0476,42.1358C39.776,41.8338,40.4378,41.3913,40.995,40.8334C40.995,40.8334,38.165,38.0066,38.165,38.0066C38.165,38.0066,38.165,38.0066,38.165,38.0066ZM37.5159,38.4407C37.2731,38.5413,37.0128,38.5931,36.75,38.5931C36.75,38.5931,36.75,42.5931,36.75,42.5931C37.5385,42.5931,38.3193,42.4377,39.0476,42.1358C39.0476,42.1358,37.5159,38.4407,37.5159,38.4407C37.5159,38.4407,37.5159,38.4407,37.5159,38.4407ZM36.75,38.5931C36.4872,38.5931,36.2269,38.5413,35.9841,38.4407C35.9841,38.4407,34.4524,42.1358,34.4524,42.1358C35.1807,42.4377,35.9615,42.5931,36.75,42.5931C36.75,42.5931,36.75,38.5931,36.75,38.5931C36.75,38.5931,36.75,38.5931,36.75,38.5931ZM35.9841,38.4407C35.7413,38.34,35.5207,38.1925,35.335,38.0066C35.335,38.0066,32.505,40.8334,32.505,40.8334C33.0622,41.3913,33.724,41.8338,34.4524,42.1358C34.4524,42.1358,35.9841,38.4407,35.9841,38.4407C35.9841,38.4407,35.9841,38.4407,35.9841,38.4407ZM35.3342,38.0058C35.3342,38.0058,35.2142,37.8858,35.2142,37.8858C35.2142,37.8858,32.3858,40.7142,32.3858,40.7142C32.3858,40.7142,32.5058,40.8342,32.5058,40.8342C32.5058,40.8342,35.3342,38.0058,35.3342,38.0058C35.3342,38.0058,35.3342,38.0058,35.3342,38.0058ZM35.1985,37.8703C34.4415,37.1298,33.48,36.633,32.438,36.4441C32.438,36.4441,31.7244,40.3799,31.7244,40.3799C31.9799,40.4262,32.2158,40.5481,32.4015,40.7297C32.4015,40.7297,35.1985,37.8703,35.1985,37.8703C35.1985,37.8703,35.1985,37.8703,35.1985,37.8703ZM32.438,36.4441C31.396,36.2551,30.3213,36.3827,29.3525,36.8103C29.3525,36.8103,30.9675,40.4697,30.9675,40.4697C31.2052,40.3648,31.4688,40.3336,31.7244,40.3799C31.7244,40.3799,32.438,36.4441,32.438,36.4441C32.438,36.4441,32.438,36.4441,32.438,36.4441ZM29.3721,36.8017C28.4221,37.2089,27.6118,37.885,27.0411,38.7468C27.0411,38.7468,30.3761,40.9554,30.3761,40.9554C30.5161,40.744,30.7148,40.5782,30.9479,40.4783C30.9479,40.4783,29.3721,36.8017,29.3721,36.8017C29.3721,36.8017,29.3721,36.8017,29.3721,36.8017ZM27.0411,38.7468C26.4704,39.6086,26.1641,40.6184,26.16,41.652C26.16,41.652,30.16,41.668,30.16,41.668C30.161,41.4144,30.2361,41.1668,30.3761,40.9554C30.3761,40.9554,27.0411,38.7468,27.0411,38.7468C27.0411,38.7468,27.0411,38.7468,27.0411,38.7468ZM26.16,41.66C26.16,41.66,26.16,42,26.16,42C26.16,42,30.16,42,30.16,42C30.16,42,30.16,41.66,30.16,41.66C30.16,41.66,26.16,41.66,26.16,41.66C26.16,41.66,26.16,41.66,26.16,41.66ZM26.16,42C26.16,42.5304,25.9493,43.0391,25.5742,43.4142C25.5742,43.4142,28.4026,46.2426,28.4026,46.2426C29.5279,45.1174,30.16,43.5913,30.16,42C30.16,42,26.16,42,26.16,42C26.16,42,26.16,42,26.16,42ZM25.5742,43.4142C25.1991,43.7893,24.6904,44,24.16,44C24.16,44,24.16,48,24.16,48C25.7513,48,27.2774,47.3679,28.4026,46.2426C28.4026,46.2426,25.5742,43.4142,25.5742,43.4142C25.5742,43.4142,25.5742,43.4142,25.5742,43.4142ZM24.16,44C23.6296,44,23.1209,43.7893,22.7458,43.4142C22.7458,43.4142,19.9174,46.2426,19.9174,46.2426C21.0426,47.3679,22.5687,48,24.16,48C24.16,48,24.16,44,24.16,44C24.16,44,24.16,44,24.16,44ZM22.7458,43.4142C22.3707,43.0391,22.16,42.5304,22.16,42C22.16,42,18.16,42,18.16,42C18.16,43.5913,18.7921,45.1174,19.9174,46.2426C19.9174,46.2426,22.7458,43.4142,22.7458,43.4142C22.7458,43.4142,22.7458,43.4142,22.7458,43.4142ZM22.16,42C22.16,42,22.16,41.82,22.16,41.82C22.16,41.82,18.16,41.82,18.16,41.82C18.16,41.82,18.16,42,18.16,42C18.16,42,22.16,42,22.16,42C22.16,42,22.16,42,22.16,42ZM22.1595,41.7732C22.1346,40.71,21.7904,39.6789,21.1718,38.8139C21.1718,38.8139,17.9183,41.1409,17.9183,41.1409C18.07,41.3531,18.1544,41.606,18.1605,41.8668C18.1605,41.8668,22.1595,41.7732,22.1595,41.7732C22.1595,41.7732,22.1595,41.7732,22.1595,41.7732ZM21.1718,38.8139C20.5531,37.9489,19.6885,37.29,18.6904,36.9229C18.6904,36.9229,17.3096,40.6771,17.3096,40.6771C17.5545,40.7671,17.7665,40.9287,17.9183,41.1409C17.9183,41.1409,21.1718,38.8139,21.1718,38.8139C21.1718,38.8139,21.1718,38.8139,21.1718,38.8139ZM18.8075,36.9703C17.8387,36.5427,16.764,36.4151,15.722,36.6041C15.722,36.6041,16.4356,40.5399,16.4356,40.5399C16.6912,40.4936,16.9548,40.5248,17.1925,40.6297C17.1925,40.6297,18.8075,36.9703,18.8075,36.9703C18.8075,36.9703,18.8075,36.9703,18.8075,36.9703ZM15.722,36.6041C14.68,36.793,13.7185,37.2898,12.9615,38.0303C12.9615,38.0303,15.7585,40.8897,15.7585,40.8897C15.9442,40.7081,16.1801,40.5862,16.4356,40.5399C16.4356,40.5399,15.722,36.6041,15.722,36.6041C15.722,36.6041,15.722,36.6041,15.722,36.6041ZM12.9458,38.0458C12.9458,38.0458,12.8258,38.1658,12.8258,38.1658C12.8258,38.1658,15.6542,40.9942,15.6542,40.9942C15.6542,40.9942,15.7742,40.8742,15.7742,40.8742C15.7742,40.8742,12.9458,38.0458,12.9458,38.0458C12.9458,38.0458,12.9458,38.0458,12.9458,38.0458ZM12.825,38.1666C12.6393,38.3525,12.4187,38.5,12.1759,38.6007C12.1759,38.6007,13.7076,42.2958,13.7076,42.2958C14.436,41.9938,15.0978,41.5513,15.655,40.9934C15.655,40.9934,12.825,38.1666,12.825,38.1666C12.825,38.1666,12.825,38.1666,12.825,38.1666ZM12.1759,38.6007C11.9331,38.7013,11.6728,38.7531,11.41,38.7531C11.41,38.7531,11.41,42.7531,11.41,42.7531C12.1985,42.7531,12.9793,42.5977,13.7076,42.2958C13.7076,42.2958,12.1759,38.6007,12.1759,38.6007C12.1759,38.6007,12.1759,38.6007,12.1759,38.6007ZM11.41,38.7531C11.1472,38.7531,10.8869,38.7013,10.6441,38.6007C10.6441,38.6007,9.11236,42.2958,9.11236,42.2958C9.84074,42.5977,10.6215,42.7531,11.41,42.7531C11.41,42.7531,11.41,38.7531,11.41,38.7531C11.41,38.7531,11.41,38.7531,11.41,38.7531ZM10.6441,38.6007C10.4013,38.5,10.1807,38.3525,9.995,38.1666C9.995,38.1666,7.165,40.9934,7.165,40.9934C7.72224,41.5513,8.38397,41.9938,9.11236,42.2958C9.11236,42.2958,10.6441,38.6007,10.6441,38.6007C10.6441,38.6007,10.6441,38.6007,10.6441,38.6007ZM9.99343,38.165C9.80748,37.9793,9.65996,37.7587,9.55931,37.5159C9.55931,37.5159,5.86421,39.0476,5.86421,39.0476C6.16616,39.776,6.60871,40.4378,7.16657,40.995C7.16657,40.995,9.99343,38.165,9.99343,38.165C9.99343,38.165,9.99343,38.165,9.99343,38.165ZM9.55931,37.5159C9.45866,37.2731,9.40685,37.0128,9.40685,36.75C9.40685,36.75,5.40685,36.75,5.40685,36.75C5.40685,37.5385,5.56227,38.3193,5.86421,39.0476C5.86421,39.0476,9.55931,37.5159,9.55931,37.5159C9.55931,37.5159,9.55931,37.5159,9.55931,37.5159ZM9.40685,36.75C9.40685,36.4872,9.45866,36.2269,9.55931,35.9841C9.55931,35.9841,5.86421,34.4524,5.86421,34.4524C5.56227,35.1807,5.40685,35.9615,5.40685,36.75C5.40685,36.75,9.40685,36.75,9.40685,36.75C9.40685,36.75,9.40685,36.75,9.40685,36.75ZM9.55931,35.9841C9.65996,35.7413,9.80748,35.5207,9.99343,35.335C9.99343,35.335,7.16657,32.505,7.16657,32.505C6.60871,33.0622,6.16616,33.724,5.86421,34.4524C5.86421,34.4524,9.55931,35.9841,9.55931,35.9841C9.55931,35.9841,9.55931,35.9841,9.55931,35.9841ZM9.99421,35.3342C9.99421,35.3342,10.1142,35.2142,10.1142,35.2142C10.1142,35.2142,7.28579,32.3858,7.28579,32.3858C7.28579,32.3858,7.16579,32.5058,7.16579,32.5058C7.16579,32.5058,9.99421,35.3342,9.99421,35.3342C9.99421,35.3342,9.99421,35.3342,9.99421,35.3342ZM10.1297,35.1985C10.8702,34.4415,11.367,33.48,11.5559,32.438C11.5559,32.438,7.6201,31.7244,7.6201,31.7244C7.57375,31.9799,7.45191,32.2158,7.27027,32.4015C7.27027,32.4015,10.1297,35.1985,10.1297,35.1985C10.1297,35.1985,10.1297,35.1985,10.1297,35.1985ZM11.5559,32.438C11.7449,31.396,11.6173,30.3213,11.1897,29.3525C11.1897,29.3525,7.53027,30.9675,7.53027,30.9675C7.63515,31.2052,7.66644,31.4688,7.6201,31.7244C7.6201,31.7244,11.5559,32.438,11.5559,32.438C11.5559,32.438,11.5559,32.438,11.5559,32.438ZM11.1983,29.3721C10.7911,28.4221,10.115,27.6118,9.25323,27.0411C9.25323,27.0411,7.04463,30.3761,7.04463,30.3761C7.25601,30.5161,7.42185,30.7148,7.52172,30.9479C7.52172,30.9479,11.1983,29.3721,11.1983,29.3721C11.1983,29.3721,11.1983,29.3721,11.1983,29.3721ZM9.25323,27.0411C8.39145,26.4704,7.3816,26.1641,6.34798,26.16C6.34798,26.16,6.33202,30.16,6.33202,30.16C6.58555,30.161,6.83325,30.2361,7.04463,30.3761C7.04463,30.3761,9.25323,27.0411,9.25323,27.0411C9.25323,27.0411,9.25323,27.0411,9.25323,27.0411ZM6.34,26.16C6.34,26.16,6,26.16,6,26.16C6,26.16,6,30.16,6,30.16C6,30.16,6.34,30.16,6.34,30.16C6.34,30.16,6.34,26.16,6.34,26.16C6.34,26.16,6.34,26.16,6.34,26.16ZM6,26.16C5.46957,26.16,4.96086,25.9493,4.58579,25.5742C4.58579,25.5742,1.75736,28.4026,1.75736,28.4026C2.88258,29.5279,4.4087,30.16,6,30.16C6,30.16,6,26.16,6,26.16C6,26.16,6,26.16,6,26.16ZM4.58579,25.5742C4.21071,25.1991,4,24.6904,4,24.16C4,24.16,0,24.16,0,24.16C0,25.7513,0.63214,27.2774,1.75736,28.4026C1.75736,28.4026,4.58579,25.5742,4.58579,25.5742C4.58579,25.5742,4.58579,25.5742,4.58579,25.5742ZM4,24.16C4,23.6296,4.21071,23.1209,4.58579,22.7458C4.58579,22.7458,1.75736,19.9174,1.75736,19.9174C0.63214,21.0426,0,22.5687,0,24.16C0,24.16,4,24.16,4,24.16C4,24.16,4,24.16,4,24.16ZM4.58579,22.7458C4.96086,22.3707,5.46957,22.16,6,22.16C6,22.16,6,18.16,6,18.16C4.4087,18.16,2.88258,18.7921,1.75736,19.9174C1.75736,19.9174,4.58579,22.7458,4.58579,22.7458C4.58579,22.7458,4.58579,22.7458,4.58579,22.7458ZM6,22.16C6,22.16,6.18,22.16,6.18,22.16C6.18,22.16,6.18,18.16,6.18,18.16C6.18,18.16,6,18.16,6,18.16C6,18.16,6,22.16,6,22.16C6,22.16,6,22.16,6,22.16ZM6.22677,22.1595C7.28996,22.1346,8.32109,21.7904,9.18609,21.1718C9.18609,21.1718,6.8591,17.9183,6.8591,17.9183C6.64693,18.07,6.39401,18.1544,6.13323,18.1605C6.13323,18.1605,6.22677,22.1595,6.22677,22.1595C6.22677,22.1595,6.22677,22.1595,6.22677,22.1595ZM9.18609,21.1718C10.0511,20.5531,10.71,19.6885,11.0771,18.6904C11.0771,18.6904,7.32293,17.3096,7.32293,17.3096C7.23289,17.5545,7.07127,17.7665,6.8591,17.9183C6.8591,17.9183,9.18609,21.1718,9.18609,21.1718C9.18609,21.1718,9.18609,21.1718,9.18609,21.1718ZM11.0297,18.8075C11.4573,17.8387,11.5849,16.764,11.3959,15.722C11.3959,15.722,7.4601,16.4356,7.4601,16.4356C7.50644,16.6912,7.47515,16.9548,7.37027,17.1925C7.37027,17.1925,11.0297,18.8075,11.0297,18.8075C11.0297,18.8075,11.0297,18.8075,11.0297,18.8075ZM11.3959,15.722C11.207,14.68,10.7102,13.7185,9.96973,12.9615C9.96973,12.9615,7.11027,15.7585,7.11027,15.7585C7.29191,15.9442,7.41375,16.1801,7.4601,16.4356C7.4601,16.4356,11.3959,15.722,11.3959,15.722C11.3959,15.722,11.3959,15.722,11.3959,15.722ZM9.95421,12.9458C9.95421,12.9458,9.83421,12.8258,9.83421,12.8258C9.83421,12.8258,7.00579,15.6542,7.00579,15.6542C7.00579,15.6542,7.12579,15.7742,7.12579,15.7742C7.12579,15.7742,9.95421,12.9458,9.95421,12.9458C9.95421,12.9458,9.95421,12.9458,9.95421,12.9458ZM9.83343,12.825C9.64747,12.6393,9.49996,12.4187,9.39931,12.1759C9.39931,12.1759,5.70422,13.7076,5.70422,13.7076C6.00616,14.436,6.44871,15.0978,7.00657,15.655C7.00657,15.655,9.83343,12.825,9.83343,12.825C9.83343,12.825,9.83343,12.825,9.83343,12.825ZM9.39931,12.1759C9.29866,11.9331,9.24685,11.6728,9.24685,11.41C9.24685,11.41,5.24685,11.41,5.24685,11.41C5.24685,12.1985,5.40227,12.9793,5.70422,13.7076C5.70422,13.7076,9.39931,12.1759,9.39931,12.1759C9.39931,12.1759,9.39931,12.1759,9.39931,12.1759ZM9.24685,11.41C9.24685,11.1472,9.29866,10.8869,9.39931,10.6441C9.39931,10.6441,5.70422,9.11236,5.70422,9.11236C5.40227,9.84075,5.24685,10.6215,5.24685,11.41C5.24685,11.41,9.24685,11.41,9.24685,11.41C9.24685,11.41,9.24685,11.41,9.24685,11.41ZM9.39931,10.6441C9.49996,10.4013,9.64747,10.1807,9.83343,9.995C9.83343,9.995,7.00657,7.165,7.00657,7.165C6.44871,7.72224,6.00616,8.38397,5.70422,9.11236C5.70422,9.11236,9.39931,10.6441,9.39931,10.6441C9.39931,10.6441,9.39931,10.6441,9.39931,10.6441ZM9.835,9.99343C10.0208,9.80747,10.2413,9.65996,10.4841,9.55931C10.4841,9.55931,8.95236,5.86421,8.95236,5.86421C8.22397,6.16616,7.56224,6.60871,7.005,7.16657C7.005,7.16657,9.835,9.99343,9.835,9.99343C9.835,9.99343,9.835,9.99343,9.835,9.99343ZM10.4841,9.55931C10.7269,9.45866,10.9872,9.40685,11.25,9.40685C11.25,9.40685,11.25,5.40685,11.25,5.40685C10.4615,5.40685,9.68075,5.56227,8.95236,5.86421C8.95236,5.86421,10.4841,9.55931,10.4841,9.55931C10.4841,9.55931,10.4841,9.55931,10.4841,9.55931ZM11.25,9.40685C11.5128,9.40685,11.7731,9.45866,12.0159,9.55931C12.0159,9.55931,13.5476,5.86421,13.5476,5.86421C12.8193,5.56227,12.0385,5.40685,11.25,5.40685C11.25,5.40685,11.25,9.40685,11.25,9.40685C11.25,9.40685,11.25,9.40685,11.25,9.40685ZM12.0159,9.55931C12.2587,9.65996,12.4793,9.80747,12.665,9.99343C12.665,9.99343,15.495,7.16657,15.495,7.16657C14.9378,6.60871,14.276,6.16616,13.5476,5.86421C13.5476,5.86421,12.0159,9.55931,12.0159,9.55931C12.0159,9.55931,12.0159,9.55931,12.0159,9.55931ZM12.6658,9.99421C12.6658,9.99421,12.7858,10.1142,12.7858,10.1142C12.7858,10.1142,15.6142,7.28579,15.6142,7.28579C15.6142,7.28579,15.4942,7.16579,15.4942,7.16579C15.4942,7.16579,12.6658,9.99421,12.6658,9.99421C12.6658,9.99421,12.6658,9.99421,12.6658,9.99421ZM12.8015,10.1297C13.5585,10.8702,14.52,11.367,15.562,11.5559C15.562,11.5559,16.2756,7.6201,16.2756,7.6201C16.0201,7.57375,15.7842,7.45191,15.5985,7.27027C15.5985,7.27027,12.8015,10.1297,12.8015,10.1297C12.8015,10.1297,12.8015,10.1297,12.8015,10.1297ZM15.562,11.5559C16.604,11.7449,17.6787,11.6173,18.6475,11.1897C18.6475,11.1897,17.0325,7.53027,17.0325,7.53027C16.7948,7.63515,16.5312,7.66644,16.2756,7.6201C16.2756,7.6201,15.562,11.5559,15.562,11.5559C15.562,11.5559,15.562,11.5559,15.562,11.5559ZM17.84,11.36C17.84,11.36,18,11.36,18,11.36C18,11.36,18,7.36,18,7.36C18,7.36,17.84,7.36,17.84,7.36C17.84,7.36,17.84,11.36,17.84,11.36C17.84,11.36,17.84,11.36,17.84,11.36ZM18.7879,11.1983C19.7379,10.7911,20.5482,10.115,21.1189,9.25323C21.1189,9.25323,17.7839,7.04463,17.7839,7.04463C17.6439,7.25601,17.4452,7.42185,17.2121,7.52172C17.2121,7.52172,18.7879,11.1983,18.7879,11.1983C18.7879,11.1983,18.7879,11.1983,18.7879,11.1983ZM21.1189,9.25323C21.6896,8.39145,21.9959,7.3816,22,6.34798C22,6.34798,18,6.33202,18,6.33202C17.999,6.58555,17.9239,6.83325,17.7839,7.04463C17.7839,7.04463,21.1189,9.25323,21.1189,9.25323C21.1189,9.25323,21.1189,9.25323,21.1189,9.25323ZM22,6.34C22,6.34,22,6,22,6C22,6,18,6,18,6C18,6,18,6.34,18,6.34C18,6.34,22,6.34,22,6.34C22,6.34,22,6.34,22,6.34ZM22,6C22,5.46957,22.2107,4.96086,22.5858,4.58579C22.5858,4.58579,19.7574,1.75736,19.7574,1.75736C18.6321,2.88258,18,4.4087,18,6C18,6,22,6,22,6C22,6,22,6,22,6ZM22.5858,4.58579C22.9609,4.21071,23.4696,4,24,4C24,4,24,0,24,0C22.4087,0,20.8826,0.63214,19.7574,1.75736C19.7574,1.75736,22.5858,4.58579,22.5858,4.58579C22.5858,4.58579,22.5858,4.58579,22.5858,4.58579ZM24,4C24.5304,4,25.0391,4.21071,25.4142,4.58579C25.4142,4.58579,28.2426,1.75736,28.2426,1.75736C27.1174,0.63214,25.5913,0,24,0C24,0,24,4,24,4C24,4,24,4,24,4ZM25.4142,4.58579C25.7893,4.96086,26,5.46957,26,6C26,6,30,6,30,6C30,4.4087,29.3679,2.88258,28.2426,1.75736C28.2426,1.75736,25.4142,4.58579,25.4142,4.58579C25.4142,4.58579,25.4142,4.58579,25.4142,4.58579ZM26,6C26,6,26,6.18,26,6.18C26,6.18,30,6.18,30,6.18C30,6.18,30,6,30,6C30,6,26,6,26,6C26,6,26,6,26,6ZM26,6.18798C26.0041,7.22159,26.3104,8.23145,26.8811,9.09323C26.8811,9.09323,30.2161,6.88463,30.2161,6.88463C30.0761,6.67325,30.001,6.42555,30,6.17202C30,6.17202,26,6.18798,26,6.18798C26,6.18798,26,6.18798,26,6.18798ZM26.8811,9.09323C27.4518,9.95501,28.2621,10.6311,29.2121,11.0383C29.2121,11.0383,30.7879,7.36172,30.7879,7.36172C30.5548,7.26185,30.3561,7.09601,30.2161,6.88463C30.2161,6.88463,26.8811,9.09323,26.8811,9.09323C26.8811,9.09323,26.8811,9.09323,26.8811,9.09323ZM29.1925,11.0297C30.1613,11.4573,31.236,11.5849,32.278,11.3959C32.278,11.3959,31.5644,7.4601,31.5644,7.4601C31.3088,7.50644,31.0452,7.47515,30.8075,7.37027C30.8075,7.37027,29.1925,11.0297,29.1925,11.0297C29.1925,11.0297,29.1925,11.0297,29.1925,11.0297ZM32.278,11.3959C33.32,11.207,34.2815,10.7102,35.0385,9.96973C35.0385,9.96973,32.2415,7.11027,32.2415,7.11027C32.0558,7.29191,31.8199,7.41375,31.5644,7.4601C31.5644,7.4601,32.278,11.3959,32.278,11.3959C32.278,11.3959,32.278,11.3959,32.278,11.3959ZM35.0542,9.95421C35.0542,9.95421,35.1742,9.83421,35.1742,9.83421C35.1742,9.83421,32.3458,7.00579,32.3458,7.00579C32.3458,7.00579,32.2258,7.12579,32.2258,7.12579C32.2258,7.12579,35.0542,9.95421,35.0542,9.95421C35.0542,9.95421,35.0542,9.95421,35.0542,9.95421ZM35.175,9.83343C35.3607,9.64748,35.5813,9.49996,35.8241,9.39931C35.8241,9.39931,34.2924,5.70422,34.2924,5.70422C33.564,6.00616,32.9022,6.44871,32.345,7.00657C32.345,7.00657,35.175,9.83343,35.175,9.83343C35.175,9.83343,35.175,9.83343,35.175,9.83343ZM35.8241,9.39931C36.0669,9.29866,36.3272,9.24685,36.59,9.24685C36.59,9.24685,36.59,5.24685,36.59,5.24685C35.8015,5.24685,35.0207,5.40227,34.2924,5.70422C34.2924,5.70422,35.8241,9.39931,35.8241,9.39931C35.8241,9.39931,35.8241,9.39931,35.8241,9.39931ZM36.59,9.24685C36.8528,9.24685,37.1131,9.29866,37.3559,9.39931C37.3559,9.39931,38.8876,5.70422,38.8876,5.70422C38.1593,5.40227,37.3785,5.24685,36.59,5.24685C36.59,5.24685,36.59,9.24685,36.59,9.24685C36.59,9.24685,36.59,9.24685,36.59,9.24685ZM37.3559,9.39931C37.5987,9.49995,37.8193,9.64747,38.005,9.83343C38.005,9.83343,40.835,7.00657,40.835,7.00657C40.2778,6.44872,39.616,6.00616,38.8876,5.70422C38.8876,5.70422,37.3559,9.39931,37.3559,9.39931C37.3559,9.39931,37.3559,9.39931,37.3559,9.39931ZM38.0066,9.835C38.1925,10.0208,38.34,10.2413,38.4407,10.4841C38.4407,10.4841,42.1358,8.95236,42.1358,8.95236C41.8338,8.22397,41.3913,7.56224,40.8334,7.005C40.8334,7.005,38.0066,9.835,38.0066,9.835C38.0066,9.835,38.0066,9.835,38.0066,9.835ZM38.4407,10.4841C38.5413,10.7269,38.5931,10.9872,38.5931,11.25C38.5931,11.25,42.5931,11.25,42.5931,11.25C42.5931,10.4615,42.4377,9.68074,42.1358,8.95236C42.1358,8.95236,38.4407,10.4841,38.4407,10.4841C38.4407,10.4841,38.4407,10.4841,38.4407,10.4841ZM38.5931,11.25C38.5931,11.5128,38.5413,11.7731,38.4407,12.0159C38.4407,12.0159,42.1358,13.5476,42.1358,13.5476C42.4377,12.8193,42.5931,12.0385,42.5931,11.25C42.5931,11.25,38.5931,11.25,38.5931,11.25C38.5931,11.25,38.5931,11.25,38.5931,11.25ZM38.4407,12.0159C38.34,12.2587,38.1925,12.4793,38.0066,12.665C38.0066,12.665,40.8334,15.495,40.8334,15.495C41.3913,14.9378,41.8338,14.276,42.1358,13.5476C42.1358,13.5476,38.4407,12.0159,38.4407,12.0159C38.4407,12.0159,38.4407,12.0159,38.4407,12.0159ZM38.0058,12.6658C38.0058,12.6658,37.8858,12.7858,37.8858,12.7858C37.8858,12.7858,40.7142,15.6142,40.7142,15.6142C40.7142,15.6142,40.8342,15.4942,40.8342,15.4942C40.8342,15.4942,38.0058,12.6658,38.0058,12.6658C38.0058,12.6658,38.0058,12.6658,38.0058,12.6658ZM37.8703,12.8015C37.1298,13.5585,36.633,14.52,36.4441,15.562C36.4441,15.562,40.3799,16.2756,40.3799,16.2756C40.4262,16.0201,40.5481,15.7842,40.7297,15.5985C40.7297,15.5985,37.8703,12.8015,37.8703,12.8015C37.8703,12.8015,37.8703,12.8015,37.8703,12.8015ZM36.4441,15.562C36.2551,16.604,36.3827,17.6787,36.8103,18.6475C36.8103,18.6475,40.4697,17.0325,40.4697,17.0325C40.3648,16.7948,40.3336,16.5312,40.3799,16.2756C40.3799,16.2756,36.4441,15.562,36.4441,15.562C36.4441,15.562,36.4441,15.562,36.4441,15.562ZM36.64,17.84C36.64,17.84,36.64,18,36.64,18C36.64,18,40.64,18,40.64,18C40.64,18,40.64,17.84,40.64,17.84C40.64,17.84,36.64,17.84,36.64,17.84C36.64,17.84,36.64,17.84,36.64,17.84ZM36.8017,18.7879C37.2089,19.7379,37.885,20.5482,38.7468,21.1189C38.7468,21.1189,40.9554,17.7839,40.9554,17.7839C40.744,17.6439,40.5782,17.4452,40.4783,17.2121C40.4783,17.2121,36.8017,18.7879,36.8017,18.7879C36.8017,18.7879,36.8017,18.7879,36.8017,18.7879ZM38.7468,21.1189C39.6086,21.6896,40.6184,21.9959,41.652,22C41.652,22,41.668,18,41.668,18C41.4144,17.999,41.1668,17.9239,40.9554,17.7839C40.9554,17.7839,38.7468,21.1189,38.7468,21.1189C38.7468,21.1189,38.7468,21.1189,38.7468,21.1189ZM41.66,22C41.66,22,42,22,42,22C42,22,42,18,42,18C42,18,41.66,18,41.66,18C41.66,18,41.66,22,41.66,22C41.66,22,41.66,22,41.66,22ZM42,22C42.5304,22,43.0391,22.2107,43.4142,22.5858C43.4142,22.5858,46.2426,19.7574,46.2426,19.7574C45.1174,18.6321,43.5913,18,42,18C42,18,42,22,42,22C42,22,42,22,42,22ZM43.4142,22.5858C43.7893,22.9609,44,23.4696,44,24C44,24,48,24,48,24C48,22.4087,47.3679,20.8826,46.2426,19.7574C46.2426,19.7574,43.4142,22.5858,43.4142,22.5858C43.4142,22.5858,43.4142,22.5858,43.4142,22.5858ZM44,24C44,24.5304,43.7893,25.0391,43.4142,25.4142C43.4142,25.4142,46.2426,28.2426,46.2426,28.2426C47.3679,27.1174,48,25.5913,48,24C48,24,44,24,44,24C44,24,44,24,44,24ZM43.4142,25.4142C43.0391,25.7893,42.5304,26,42,26C42,26,42,30,42,30C43.5913,30,45.1174,29.3679,46.2426,28.2426C46.2426,28.2426,43.4142,25.4142,43.4142,25.4142C43.4142,25.4142,43.4142,25.4142,43.4142,25.4142ZM42,26C42,26,41.82,26,41.82,26C41.82,26,41.82,30,41.82,30C41.82,30,42,30,42,30C42,30,42,26,42,26C42,26,42,26,42,26ZM41.812,26C40.7784,26.0041,39.7686,26.3104,38.9068,26.8811C38.9068,26.8811,41.1154,30.2161,41.1154,30.2161C41.3268,30.0761,41.5744,30.001,41.828,30C41.828,30,41.812,26,41.812,26C41.812,26,41.812,26,41.812,26ZM38.9068,26.8811C38.045,27.4518,37.3689,28.2621,36.9617,29.2121C36.9617,29.2121,40.6383,30.7879,40.6383,30.7879C40.7382,30.5548,40.904,30.3561,41.1154,30.2161C41.1154,30.2161,38.9068,26.8811,38.9068,26.8811C38.9068,26.8811,38.9068,26.8811,38.9068,26.8811Z" fill="#1E1E1E" fill-opacity="1"/></g></g></svg>